<svg width="197" height="121" viewBox="0 0 197 121" fill="none" xmlns="http://www.w3.org/2000/svg">
<g opacity="0.85">
<path d="M187.689 68.2498C185.298 55.8608 171.975 48.0168 157.939 50.7298C143.903 53.4428 134.466 65.6848 136.861 78.0758C137.928 83.3882 140.989 88.0904 145.414 91.2168H177.254C185.034 85.9408 189.402 77.1338 187.689 68.2498Z" fill="url(#paint0_linear_4012_7099)"/>
<path d="M187.689 68.2498C185.298 55.8608 171.975 48.0168 157.939 50.7298C143.903 53.4428 134.466 65.6848 136.861 78.0758C137.928 83.3882 140.989 88.0904 145.414 91.2168H177.254C185.034 85.9408 189.402 77.1338 187.689 68.2498Z" fill="url(#paint1_linear_4012_7099)"/>
<path d="M115.915 35.087C110.086 19.739 95.0681 10.013 77.2011 7.96096C70.7487 3.52787 63.2574 0.84306 55.4581 0.16847C47.6587 -0.506119 39.8177 0.852553 32.7 4.11193C25.5823 7.3713 19.431 12.4201 14.8464 18.7656C10.2617 25.1111 7.4002 32.5368 6.54108 40.318C7.98249 34.1554 10.6983 28.3629 14.5136 23.3133C18.329 18.2637 23.1594 14.069 28.6939 10.9991C34.2284 7.92915 40.3444 6.0521 46.6482 5.48872C52.952 4.92533 59.3039 5.68812 65.2951 7.72796C58.4925 8.23497 51.8002 9.73069 45.4291 12.168C27.6471 18.93 14.4961 31.851 8.72908 46.268C1.91508 47.969 -1.65392 59.176 0.749081 71.637C3.20308 84.327 10.9221 93.506 17.9941 92.137C18.3746 92.0625 18.7487 91.9585 19.1131 91.826C33.2821 103.97 56.3531 107.439 78.4621 99.039C108.269 87.718 125.041 59.077 115.915 35.087Z" fill="url(#paint2_linear_4012_7099)"/>
<path d="M91.0989 8.74609C104.061 12.8201 114.56 21.1241 119.922 32.9931C130.479 56.3641 117.494 85.5471 90.6689 101.841C120.339 86.2411 135.669 56.2411 125.116 32.8671C119.249 19.8891 106.578 11.5491 91.0989 8.74609Z" fill="url(#paint3_linear_4012_7099)"/>
<path d="M91.0989 8.74609C104.061 12.8201 114.56 21.1241 119.922 32.9931C130.479 56.3641 117.494 85.5471 90.6689 101.841C120.339 86.2411 135.669 56.2411 125.116 32.8671C119.249 19.8891 106.578 11.5491 91.0989 8.74609Z" fill="url(#paint4_linear_4012_7099)"/>
</g>
<path d="M53.4819 91.2137C76.2161 91.2137 94.6459 72.784 94.6459 50.0497C94.6459 27.3155 76.2161 8.88574 53.4819 8.88574C30.7476 8.88574 12.3179 27.3155 12.3179 50.0497C12.3179 72.784 30.7476 91.2137 53.4819 91.2137Z" fill="#E7AB12"/>
<path d="M49.623 91.2137C72.3572 91.2137 90.787 72.784 90.787 50.0497C90.787 27.3155 72.3572 8.88574 49.623 8.88574C26.8887 8.88574 8.45898 27.3155 8.45898 50.0497C8.45898 72.784 26.8887 91.2137 49.623 91.2137Z" fill="#FFCD4E"/>
<path d="M49.6231 89.1583C71.2213 89.1583 88.7301 71.6495 88.7301 50.0513C88.7301 28.4531 71.2213 10.9443 49.6231 10.9443C28.0249 10.9443 10.5161 28.4531 10.5161 50.0513C10.5161 71.6495 28.0249 89.1583 49.6231 89.1583Z" fill="#E7AB12"/>
<path d="M88.7292 50.05C88.7308 60.2453 84.7501 70.038 77.6358 77.3407C70.5214 84.6433 60.836 88.8784 50.6442 89.143C40.4572 88.8704 30.779 84.632 23.6702 77.3304C16.5614 70.0288 12.5835 60.2407 12.5835 50.05C12.5835 39.8594 16.5614 30.0713 23.6702 22.7696C30.779 15.468 40.4572 11.2297 50.6442 10.957C60.8345 11.2252 70.5174 15.4615 77.6304 22.7635C84.7433 30.0656 88.7243 39.8562 88.7252 50.05H88.7292Z" fill="white"/>
<path d="M88.7291 50.0511C88.7413 59.2884 85.4703 68.2294 79.5001 75.2781C74.6565 80.6202 68.3776 84.4551 61.4132 86.3248C54.4489 88.1945 47.0935 88.02 40.2257 85.8222C33.3578 83.6243 27.2678 79.496 22.683 73.9303C18.0981 68.3646 15.2123 61.5968 14.3701 54.4351C15.6404 57.2001 17.2552 59.7934 19.1761 62.1531C31.1171 76.8531 52.1061 79.5801 66.0571 68.2451C80.0081 56.9101 81.6381 35.8081 69.6971 21.1091C67.43 18.3128 64.7562 15.8723 61.7651 13.8691C68.5943 15.777 74.7443 19.5785 79.5041 24.8341C85.4708 31.8807 88.7403 40.8178 88.7291 50.0511Z" fill="#C8E9F7"/>
<path d="M88.7291 50.0511C88.7413 59.2884 85.4703 68.2294 79.5001 75.2781C74.6565 80.6202 68.3776 84.4551 61.4132 86.3248C54.4489 88.1945 47.0935 88.02 40.2257 85.8222C33.3578 83.6243 27.2678 79.496 22.683 73.9303C18.0981 68.3646 15.2123 61.5968 14.3701 54.4351C15.6404 57.2001 17.2552 59.7934 19.1761 62.1531C31.1171 76.8531 52.1061 79.5801 66.0571 68.2451C80.0081 56.9101 81.6381 35.8081 69.6971 21.1091C67.43 18.3128 64.7562 15.8723 61.7651 13.8691C68.5943 15.777 74.7443 19.5785 79.5041 24.8341C85.4708 31.8807 88.7403 40.8178 88.7291 50.0511Z" fill="url(#paint5_linear_4012_7099)"/>
<path d="M52.5872 46.4979L57.8872 12.9979C52.5045 12.0997 46.9907 12.3845 41.7292 13.8324C36.4676 15.2803 31.5845 17.8567 27.4192 21.3824C23.2539 24.9081 19.9063 29.2986 17.6092 34.2487C15.312 39.1988 14.1204 44.5898 14.1172 50.0469H51.6752L52.5872 46.4979Z" fill="url(#paint6_linear_4012_7099)"/>
<path d="M52.5872 46.4979L57.8872 12.9979C52.5045 12.0997 46.9907 12.3845 41.7292 13.8324C36.4676 15.2803 31.5845 17.8567 27.4192 21.3824C23.2539 24.9081 19.9063 29.2986 17.6092 34.2487C15.312 39.1988 14.1204 44.5898 14.1172 50.0469H51.6752L52.5872 46.4979Z" fill="url(#paint7_linear_4012_7099)"/>
<path d="M51.6802 49.4707H22.7412V50.6287H51.6802V49.4707Z" fill="#3A43BA"/>
<path d="M55.2144 23.7133L50.7852 49.9004L52.5767 50.2034L57.0059 24.0163L55.2144 23.7133Z" fill="#3A43BA"/>
<path d="M20.1239 49.5107H15.6509V50.5897H20.1239V49.5107Z" fill="#3A43BA"/>
<path d="M24.7179 33.9336L20.8262 31.6982L20.2868 32.6373L24.1784 34.8727L24.7179 33.9336Z" fill="#3A43BA"/>
<path d="M36.3698 22.4519L34.1333 18.5781L33.1989 19.1176L35.4354 22.9914L36.3698 22.4519Z" fill="#3A43BA"/>
<path d="M52.2183 18.4935V14.0205H51.1393V18.4935H52.2183Z" fill="#3A43BA"/>
<path d="M83.237 50.5898H87.71V49.5108H83.237V50.5898Z" fill="#3A43BA"/>
<path d="M79.2781 34.7385L83.1519 32.502L82.6124 31.5675L78.7386 33.804L79.2781 34.7385Z" fill="#3A43BA"/>
<path d="M67.9266 22.9909L70.1631 19.1172L69.2286 18.5777L66.9921 22.4514L67.9266 22.9909Z" fill="#3A43BA"/>
<path d="M24.0808 65.3612L20.207 67.5977L20.7465 68.5321L24.6203 66.2956L24.0808 65.3612Z" fill="#3A43BA"/>
<path d="M35.4357 77.1097L33.1992 80.9834L34.1337 81.5229L36.3702 77.6492L35.4357 77.1097Z" fill="#3A43BA"/>
<path d="M51.1411 81.6071V86.0801H52.2201V81.6071H51.1411Z" fill="#3A43BA"/>
<path d="M78.7395 66.2957L82.6133 68.5322L83.1528 67.5978L79.279 65.3613L78.7395 66.2957Z" fill="#3A43BA"/>
<path d="M66.9935 77.6507L69.23 81.5244L70.1644 80.9849L67.9279 77.1112L66.9935 77.6507Z" fill="#3A43BA"/>
<path d="M88.3689 92.554C133.546 92.554 170.17 91.9541 170.17 91.214C170.17 90.474 133.546 89.874 88.3689 89.874C43.1914 89.874 6.56787 90.474 6.56787 91.214C6.56787 91.9541 43.1914 92.554 88.3689 92.554Z" fill="#367AD1"/>
<path d="M93.8252 75.557C94.826 75.5372 95.8195 75.7323 96.7385 76.1291C97.6575 76.5259 98.4806 77.1152 99.1525 77.8572C99.8244 78.5993 100.329 79.4767 100.633 80.4305C100.937 81.3843 101.033 82.3921 100.914 83.386C100.681 85.508 99.6833 87.4726 98.1078 88.9132C96.5324 90.3538 94.4866 91.172 92.3522 91.2151H88.3452L89.8272 75.557H93.8252Z" fill="#333332"/>
<path d="M94.2404 88.7789C97.5205 85.6499 97.8719 80.6943 95.0254 77.7104C92.1789 74.7265 87.2123 74.8441 83.9322 77.9731C80.6522 81.1021 80.3007 86.0576 83.1473 89.0416C85.9938 92.0255 90.9604 91.9079 94.2404 88.7789Z" fill="#333332"/>
<path d="M92.386 86.8543C94.4856 84.8521 94.711 81.6806 92.8895 79.7706C91.068 77.8605 87.8894 77.9351 85.7898 79.9373C83.6903 81.9394 83.4649 85.1109 85.2864 87.021C87.1079 88.9311 90.2865 88.8565 92.386 86.8543Z" fill="#575756"/>
<path d="M152.58 75.557C153.581 75.5374 154.574 75.7326 155.493 76.1294C156.412 76.5263 157.235 77.1156 157.907 77.8576C158.579 78.5996 159.083 79.477 159.387 80.4307C159.691 81.3844 159.787 82.3921 159.668 83.386C159.434 85.5093 158.436 87.4749 156.859 88.9156C155.281 90.3563 153.234 91.1737 151.098 91.215H147.098L148.58 75.557H152.58Z" fill="#333332"/>
<path d="M152.99 88.776C156.27 85.6469 156.622 80.6914 153.775 77.7075C150.929 74.7235 145.962 74.8411 142.682 77.9702C139.402 81.0992 139.051 86.0547 141.897 89.0386C144.744 92.0226 149.71 91.905 152.99 88.776Z" fill="#333332"/>
<path d="M151.143 86.8592C153.242 84.857 153.468 81.6855 151.646 79.7754C149.825 77.8654 146.646 77.94 144.547 79.9422C142.447 81.9443 142.222 85.1158 144.043 87.0259C145.865 88.936 149.043 88.8613 151.143 86.8592Z" fill="#575756"/>
<path d="M139.74 75.557C140.741 75.5372 141.735 75.7323 142.654 76.1291C143.573 76.5259 144.396 77.1152 145.068 77.8572C145.74 78.5993 146.244 79.4767 146.548 80.4305C146.852 81.3843 146.948 82.3921 146.829 83.386C146.595 85.5092 145.597 87.4747 144.019 88.9154C142.442 90.3561 140.395 91.1735 138.259 91.2151H134.259L135.741 75.557H139.74Z" fill="#333332"/>
<path d="M80.9859 75.557C81.9867 75.5372 82.9801 75.7323 83.8991 76.1291C84.8181 76.5259 85.6413 77.1152 86.3132 77.8572C86.9851 78.5993 87.49 79.4767 87.7939 80.4305C88.0978 81.3843 88.1936 82.3921 88.0749 83.386C87.8418 85.5103 86.8428 87.4769 85.2647 88.9179C83.6866 90.3589 81.6375 91.1755 79.5009 91.2151H75.5059L76.9869 75.557H80.9859Z" fill="#333332"/>
<path d="M166.52 63.8853C165.799 62.967 165.282 61.9058 165.002 60.7723L157.024 28.8613C156.798 27.9538 156.27 27.1501 155.527 26.5821C154.784 26.0141 153.87 25.7155 152.935 25.7353H111.251L105.801 83.3193H165.254C165.862 83.3074 166.444 83.0748 166.892 82.6649C167.34 82.2551 167.624 81.6961 167.69 81.0923L168.853 68.8123C168.969 67.7157 168.658 66.6167 167.983 65.7443L166.52 63.8853Z" fill="url(#paint8_linear_4012_7099)"/>
<path d="M151.144 65.7524L149.681 63.8934C148.96 62.9751 148.443 61.914 148.163 60.7804L140.185 28.8614C139.96 27.9533 139.433 27.1489 138.689 26.5807C137.946 26.0124 137.032 25.7143 136.096 25.7354H70.3762C69.2759 25.7571 68.2171 26.1594 67.3799 26.8737C66.5427 27.588 65.9788 28.5703 65.7842 29.6534L61.0662 57.5534L59.0662 78.6714C59.0233 79.028 59.0539 79.3896 59.1561 79.7338C59.2584 80.0781 59.4301 80.3978 59.6608 80.6731C59.8914 80.9484 60.176 81.1736 60.497 81.3346C60.818 81.4956 61.1686 81.5892 61.5272 81.6094L85.7742 83.3234H148.412C149.02 83.3117 149.602 83.0792 150.051 82.6694C150.499 82.2595 150.783 81.7004 150.849 81.0964L152.012 68.8164C152.128 67.7214 151.817 66.624 151.144 65.7524Z" fill="url(#paint9_linear_4012_7099)"/>
<path d="M66.8613 81.9813L66.9733 80.7814C67.2577 78.2 68.4719 75.8104 70.3892 74.0587C72.3065 72.307 74.7958 71.313 77.3923 71.2623C78.609 71.2388 79.8165 71.4763 80.9336 71.959C82.0507 72.4416 83.0513 73.1581 83.868 74.0602C84.6847 74.9623 85.2985 76.029 85.6681 77.1885C86.0376 78.3479 86.1543 79.573 86.0103 80.7814L85.7713 83.3063L66.8613 81.9813Z" fill="#1E2859"/>
<path d="M125.488 83.3142L125.727 80.7892C126.012 78.2076 127.226 75.8179 129.144 74.0662C131.061 72.3145 133.551 71.3206 136.147 71.2702C137.364 71.2464 138.572 71.4839 139.689 71.9665C140.806 72.449 141.807 73.1656 142.623 74.0677C143.44 74.9699 144.054 76.0366 144.423 77.1961C144.793 78.3556 144.909 79.5808 144.765 80.7892L144.526 83.3142H125.488Z" fill="#1E2859"/>
<path d="M144.765 80.7931L144.526 83.3191H135.007L135.742 75.5571H139.742C141.447 75.5379 143.103 76.1284 144.41 77.2221C144.764 78.3771 144.884 79.5909 144.765 80.7931Z" fill="#333332"/>
<path d="M140.154 88.7769C143.434 85.6479 143.785 80.6924 140.938 77.7084C138.092 74.7245 133.125 74.8421 129.845 77.9711C126.565 81.1002 126.214 86.0557 129.06 89.0396C131.907 92.0236 136.873 91.9059 140.154 88.7769Z" fill="#575756"/>
<path d="M138.302 86.8592C140.402 84.857 140.627 81.6855 138.805 79.7754C136.984 77.8654 133.805 77.94 131.706 79.9422C129.606 81.9443 129.381 85.1158 131.202 87.0259C133.024 88.936 136.203 88.8613 138.302 86.8592Z" fill="#9D9D9C"/>
<path d="M137.352 80.6403C137.41 81.0551 137.403 81.4766 137.331 81.8893C137.152 82.866 136.661 83.7582 135.932 84.4319C135.202 85.1056 134.274 85.5244 133.286 85.6252C132.897 85.6593 132.505 85.6367 132.122 85.5582C132.051 85.5439 131.978 85.5509 131.911 85.5783C131.844 85.6057 131.787 85.6523 131.747 85.7122C131.707 85.7721 131.686 85.8426 131.686 85.9147C131.685 85.9868 131.707 86.0573 131.747 86.1172C132.098 86.5419 132.541 86.8817 133.042 87.1115C133.543 87.3413 134.09 87.455 134.641 87.4443C135.75 87.4151 136.81 86.9841 137.625 86.2316C138.439 85.479 138.953 84.4562 139.07 83.3533C139.128 82.7926 139.056 82.2262 138.86 81.6977C138.664 81.1692 138.349 80.6928 137.94 80.3052C137.883 80.2617 137.814 80.236 137.742 80.2313C137.67 80.2265 137.598 80.243 137.535 80.2787C137.473 80.3144 137.422 80.3677 137.389 80.4319C137.357 80.4962 137.344 80.5687 137.352 80.6403Z" fill="#EDEDED"/>
<path d="M148.703 79.5469H151.003L151.224 77.21H148.924L148.703 79.5469Z" fill="white"/>
<path d="M129.163 62.1269H123.894L124.027 60.7148H129.298L129.163 62.1269ZM124.181 61.8658H128.925L129.009 60.9769H124.266L124.181 61.8658Z" fill="#3A43BA"/>
<path d="M144.344 69.5324H136.325V69.2704H144.344C144.565 69.2654 144.776 69.1805 144.938 69.0315C145.101 68.8825 145.204 68.6796 145.228 68.4604L145.841 61.9844L146.101 62.0094L145.488 68.4854C145.457 68.7689 145.324 69.0315 145.113 69.2242C144.903 69.4168 144.629 69.5263 144.344 69.5324Z" fill="#3A43BA"/>
<path d="M124.865 78.7695H91.0933V78.5065H124.66C125.375 75.9298 126.891 73.6468 128.987 71.9868C131.084 70.3268 133.653 69.3757 136.325 69.2705V69.5325C133.693 69.6361 131.164 70.5789 129.106 72.2231C127.049 73.8672 125.571 76.1265 124.889 78.6705L124.865 78.7695Z" fill="#3A43BA"/>
<path d="M91.0992 78.7696H87.2601V78.6456C87.1085 76.1789 86.0223 73.8627 84.2227 72.1689C82.4231 70.475 80.0455 69.5308 77.5742 69.5286C75.8428 69.6286 74.1533 70.1001 72.6203 70.9111C71.0874 71.7221 69.747 72.8536 68.6902 74.2286L68.6531 74.2896H59.4941V74.0286H68.5052C69.5074 72.6565 70.8166 71.5377 72.3282 70.7616C73.9282 69.8451 75.7274 69.3323 77.5702 69.2676C80.0853 69.2721 82.506 70.226 84.3481 71.9384C86.1903 73.6508 87.3182 75.9955 87.5061 78.5036H91.0921L91.0992 78.7696Z" fill="#3A43BA"/>
<path d="M123.526 53.4095L125.376 33.8725C125.414 33.52 125.58 33.1936 125.841 32.9542C126.103 32.7149 126.443 32.5792 126.797 32.5725H138.577C138.845 32.5669 139.106 32.6547 139.316 32.8207C139.527 32.9867 139.673 33.2207 139.729 33.4825L145.518 59.9215C145.558 60.1471 145.543 60.3789 145.475 60.5976C145.406 60.8163 145.287 61.0154 145.126 61.1784C144.965 61.3414 144.767 61.4635 144.55 61.5345C144.332 61.6055 144.1 61.6233 143.874 61.5865L127.134 58.3275C126.021 58.1179 125.03 57.4934 124.36 56.5804C123.69 55.6673 123.392 54.5339 123.526 53.4095Z" fill="#1E2859"/>
<path d="M86.0103 80.7931L85.7773 83.3191H76.2583L76.9923 75.5571H80.9923C82.6977 75.5377 84.3539 76.1282 85.6623 77.2221C86.0144 78.3775 86.1334 79.5913 86.0123 80.7931H86.0103Z" fill="#3C3C3B"/>
<path d="M81.4016 88.7799C84.6816 85.6508 85.0331 80.6953 82.1865 77.7114C79.34 74.7274 74.3734 74.8451 71.0934 77.9741C67.8133 81.1031 67.4619 86.0586 70.3084 89.0425C73.1549 92.0265 78.1215 91.9089 81.4016 88.7799Z" fill="#575756"/>
<path d="M79.5473 86.8339C81.6464 84.8314 81.8713 81.6599 80.0495 79.7501C78.2276 77.8403 75.049 77.9155 72.9498 79.9181C70.8507 81.9206 70.6258 85.0921 72.4476 87.0019C74.2695 88.9117 77.4481 88.8365 79.5473 86.8339Z" fill="#9D9D9C"/>
<path d="M78.6041 80.6411C78.6636 81.0544 78.6582 81.4744 78.5881 81.8861C78.4093 82.8649 77.9171 83.7591 77.1856 84.4337C76.4542 85.1083 75.5232 85.5268 74.5331 85.626C74.1432 85.6601 73.7505 85.6375 73.3671 85.559C73.2964 85.5444 73.2229 85.5512 73.1561 85.5786C73.0892 85.606 73.0321 85.6527 72.9919 85.7127C72.9518 85.7727 72.9305 85.8433 72.9307 85.9155C72.9309 85.9877 72.9526 86.0583 72.9931 86.118C73.3444 86.5405 73.7861 86.8785 74.2856 87.1072C74.7852 87.3358 75.3298 87.4492 75.8791 87.439C76.988 87.4099 78.0486 86.979 78.8636 86.2265C79.6787 85.474 80.1927 84.4511 80.3101 83.348C80.3674 82.7874 80.2953 82.2211 80.0994 81.6927C79.9035 81.1643 79.589 80.6878 79.1801 80.3001C79.1227 80.2574 79.0539 80.2327 78.9825 80.229C78.9111 80.2253 78.8403 80.2427 78.7787 80.2791C78.7172 80.3155 78.6678 80.3693 78.6368 80.4337C78.6057 80.4981 78.5943 80.5702 78.6041 80.6411Z" fill="#EDEDED"/>
<path d="M163.784 61.6142H149.777L142.518 32.5732H156.518L163.784 61.6142Z" fill="white"/>
<path d="M153.747 79.5469H150.998L151.219 77.21H153.968L153.747 79.5469Z" fill="#C8E9F7"/>
<path d="M167.837 79.5469H165.087L165.308 77.21H168.058L167.837 79.5469Z" fill="white"/>
<path d="M168.346 74.1631H166.152C166.081 74.1636 166.011 74.1491 165.947 74.1205C165.882 74.092 165.824 74.05 165.777 73.9975C165.73 73.945 165.694 73.883 165.673 73.8157C165.651 73.7485 165.644 73.6774 165.652 73.6071L165.969 70.2642C166.029 69.6489 166.129 69.0383 166.269 68.4362L166.698 66.5502C166.751 66.3235 166.878 66.121 167.059 65.9748C167.241 65.8286 167.465 65.7471 167.698 65.7432H167.998C168.672 66.6164 168.983 67.7155 168.867 68.8122L168.346 74.1631Z" fill="white"/>
<path d="M123.883 32.5574L119.528 78.6221L119.789 78.6467L124.144 32.5821L123.883 32.5574Z" fill="#3A43BA"/>
<path d="M158.28 32.4434H65.0439V32.7054H158.28V32.4434Z" fill="#3A43BA"/>
<path d="M145.647 59.8932L145.391 59.9492L145.845 62.0201L146.101 61.9641L145.647 59.8932Z" fill="#3A43BA"/>
<path d="M149.535 66.4193L149.647 67.3353C149.726 67.9874 149.735 68.6463 149.672 69.3003L149.264 73.6003C149.256 73.6706 149.263 73.7418 149.284 73.8092C149.306 73.8766 149.341 73.9387 149.389 73.9913C149.436 74.0439 149.494 74.0859 149.559 74.1146C149.623 74.1432 149.693 74.1577 149.764 74.1573H151.503L152.01 68.8063C152.127 67.7096 151.815 66.6103 151.14 65.7383H150.14C150.055 65.7399 149.971 65.759 149.893 65.7943C149.816 65.8297 149.747 65.8806 149.69 65.9439C149.633 66.0072 149.589 66.0815 149.562 66.1622C149.535 66.243 149.525 66.3284 149.532 66.4133L149.535 66.4193Z" fill="white"/>
<path d="M165.596 74.1627H154.257L154.713 69.3467H166.052L165.596 74.1627Z" fill="#1E2859"/>
<path d="M154.019 68.1743L152.966 66.3903C152.846 66.1901 152.675 66.025 152.47 65.9116C152.266 65.7982 152.036 65.7405 151.802 65.7443H151.144C151.819 66.6166 152.13 67.7157 152.014 68.8123L151.508 74.1633H153.708C153.86 74.1601 154.005 74.102 154.117 73.9997C154.228 73.8974 154.299 73.758 154.316 73.6073L154.585 70.7683C154.677 69.866 154.48 68.9578 154.023 68.1743H154.019Z" fill="#C8E9F7"/>
<path d="M61.1741 55.834L61.0661 57.55L59.4941 74.164H62.8282L64.4721 56.764C64.4862 56.6463 64.4748 56.5269 64.4388 56.414C64.4027 56.3011 64.3429 56.1973 64.2632 56.1095C64.1836 56.0217 64.0861 55.952 63.9772 55.9052C63.8683 55.8583 63.7506 55.8354 63.6321 55.838L61.1741 55.834Z" fill="#E87F79"/>
<path d="M61.9031 66.3281H60.2351L59.4941 74.1631H61.1621L61.9031 66.3281Z" fill="#FFAFA3"/>
<path d="M63.7008 66.3401L63.4388 66.3161L64.3448 56.7521C64.3559 56.652 64.3457 56.5507 64.315 56.4547C64.2844 56.3588 64.2339 56.2703 64.1668 56.1951C64.0991 56.122 64.0168 56.0639 63.9251 56.0248C63.8334 55.9857 63.7345 55.9664 63.6349 55.9681H61.1738V55.7071H63.6349C63.771 55.7052 63.906 55.7319 64.0311 55.7857C64.1562 55.8394 64.2686 55.919 64.3608 56.0191C64.4525 56.1215 64.5216 56.2419 64.5636 56.3727C64.6056 56.5034 64.6197 56.6416 64.6048 56.7781L63.7008 66.3401Z" fill="white"/>
<path d="M160.973 61.6133H149.779L143.915 38.1643H154.885C155.153 38.1585 155.415 38.2461 155.625 38.4121C155.836 38.5782 155.982 38.8123 156.039 39.0743L160.973 61.6133Z" fill="#E1E3F5"/>
<path d="M143.878 61.5904L140.011 60.8434C139.836 60.2486 139.776 59.6257 139.836 59.0084L141.49 41.5244L145.525 59.9244C145.564 60.1501 145.548 60.3818 145.479 60.6003C145.41 60.8187 145.29 61.0176 145.129 61.1804C144.968 61.3433 144.771 61.4654 144.553 61.5367C144.336 61.608 144.104 61.6264 143.878 61.5904Z" fill="url(#paint10_linear_4012_7099)"/>
<path d="M144.124 61.7447C144.033 61.7452 143.942 61.7369 143.852 61.7197L127.105 58.4587L127.154 58.2017L143.906 61.4627C144.112 61.4989 144.324 61.4831 144.523 61.4167C144.721 61.3504 144.9 61.2356 145.043 61.0827C145.191 60.9388 145.3 60.7602 145.361 60.5632C145.422 60.3662 145.433 60.157 145.393 59.9547L139.602 33.5127C139.552 33.2798 139.422 33.0717 139.235 32.9244C139.048 32.777 138.815 32.6997 138.577 32.7057V32.4447C138.875 32.4375 139.166 32.5349 139.4 32.7199C139.634 32.9049 139.796 33.1659 139.858 33.4577L145.646 59.9077C145.696 60.1521 145.684 60.4051 145.611 60.6438C145.538 60.8824 145.407 61.0989 145.229 61.2737C145.085 61.4219 144.914 61.5399 144.724 61.6208C144.534 61.7017 144.33 61.7438 144.124 61.7447Z" fill="#3A43BA"/>
<path d="M163.781 61.744H151.098C150.695 61.7523 150.302 61.6239 149.982 61.3796C149.661 61.1353 149.433 60.7896 149.335 60.399L142.388 32.605L142.642 32.541L149.589 60.335C149.673 60.6696 149.868 60.9658 150.142 61.175C150.416 61.3841 150.753 61.4938 151.098 61.486H163.78L163.781 61.744Z" fill="white"/>
<path d="M139.647 61.9971H141.739C141.89 61.9939 142.036 61.9356 142.148 61.8331C142.26 61.7306 142.33 61.591 142.347 61.4401L143.055 53.9681C143.063 53.8979 143.056 53.8268 143.034 53.7596C143.013 53.6923 142.977 53.6303 142.93 53.5778C142.882 53.5253 142.825 53.4833 142.76 53.4548C142.695 53.4262 142.625 53.4117 142.555 53.4121H140.463C140.311 53.4149 140.166 53.4729 140.054 53.5753C139.942 53.6776 139.871 53.8173 139.855 53.9681L139.147 61.4401C139.139 61.5104 139.146 61.5816 139.167 61.649C139.189 61.7164 139.224 61.7785 139.271 61.8312C139.319 61.8838 139.377 61.9258 139.441 61.9544C139.506 61.983 139.576 61.9976 139.647 61.9971Z" fill="#C8E9F7"/>
<path d="M166.052 69.2148H154.713V69.4768H166.052V69.2148Z" fill="white"/>
<path d="M42.7583 103.876C42.7583 104.414 46.7523 104.849 51.6813 104.849C56.6103 104.849 60.6023 104.414 60.6023 103.876C60.6023 103.338 56.6083 102.902 51.6813 102.902C46.7543 102.902 42.7583 103.338 42.7583 103.876Z" fill="#1E2859"/>
<path d="M45.8413 96.2429C44.8767 95.1245 44.2535 93.7527 44.0458 92.2905C43.8382 90.8282 44.0548 89.3371 44.6699 87.9943C45.285 86.6516 46.2727 85.5138 47.5156 84.716C48.7585 83.9182 50.2043 83.4941 51.6813 83.4941C53.1582 83.4941 54.604 83.9182 55.8469 84.716C57.0898 85.5138 58.0775 86.6516 58.6926 87.9943C59.3077 89.3371 59.5243 90.8282 59.3166 92.2905C59.109 93.7527 58.4858 95.1245 57.5213 96.2429L51.6813 103.874L45.8413 96.2429Z" fill="#3643BA"/>
<path d="M51.6813 95.6575C54.1351 95.6575 56.1243 93.6683 56.1243 91.2145C56.1243 88.7607 54.1351 86.7715 51.6813 86.7715C49.2275 86.7715 47.2383 88.7607 47.2383 91.2145C47.2383 93.6683 49.2275 95.6575 51.6813 95.6575Z" fill="white"/>
<path d="M185.266 105.094C191.425 105.094 196.418 104.549 196.418 103.876C196.418 103.204 191.425 102.658 185.266 102.658C179.107 102.658 174.114 103.204 174.114 103.876C174.114 104.549 179.107 105.094 185.266 105.094Z" fill="#1E2859"/>
<path d="M177.966 94.3354C176.76 92.9374 175.981 91.2226 175.722 89.3948C175.462 87.567 175.733 85.7031 176.502 84.0247C177.271 82.3462 178.505 80.9239 180.059 79.9267C181.613 78.9295 183.42 78.3994 185.266 78.3994C187.112 78.3994 188.919 78.9295 190.473 79.9267C192.027 80.9239 193.261 82.3462 194.03 84.0247C194.799 85.7031 195.07 87.567 194.81 89.3948C194.551 91.2226 193.772 92.9374 192.566 94.3354L185.266 103.875L177.966 94.3354Z" fill="#3643BA"/>
<path d="M190.396 90.1735C191.57 87.3401 190.224 84.0918 187.391 82.9181C184.557 81.7445 181.309 83.09 180.135 85.9234C178.962 88.7568 180.307 92.0051 183.141 93.1788C185.974 94.3524 189.222 93.0069 190.396 90.1735Z" fill="white"/>
<path d="M54.4997 110.338C54.7523 108.782 53.6958 107.316 52.1399 107.063C50.584 106.811 49.118 107.867 48.8655 109.423C48.6129 110.979 49.6695 112.445 51.2253 112.698C52.7812 112.95 54.2472 111.894 54.4997 110.338Z" fill="#7AFFA6"/>
<path d="M188.091 110.338C188.343 108.782 187.287 107.316 185.731 107.063C184.175 106.811 182.709 107.867 182.456 109.423C182.204 110.979 183.26 112.445 184.816 112.698C186.372 112.95 187.838 111.894 188.091 110.338Z" fill="#7AFFA6"/>
<path d="M60.0222 109.227H51.6812V110.798H59.3382L60.0222 109.227Z" fill="#7AFFA6"/>
<path d="M70.0951 109.227H65.0591L64.373 110.798H69.4091L70.0951 109.227Z" fill="#7AFFA6"/>
<path d="M160.523 109.227C160.351 109.241 160.178 109.214 160.018 109.148C159.859 109.082 159.717 108.979 159.605 108.847C159.511 108.648 159.467 108.429 159.476 108.21C159.485 107.99 159.547 107.775 159.656 107.584L162.222 101.704C162.441 101.276 162.549 100.799 162.535 100.318C162.522 99.8373 162.389 99.3673 162.147 98.9513C161.899 98.5947 161.563 98.3075 161.173 98.1171C160.782 97.9267 160.349 97.8393 159.915 97.8633H151.247C150.247 97.9258 149.282 98.2574 148.455 98.823C147.628 99.3885 146.968 100.167 146.547 101.076L139.917 116.266C139.619 116.896 139.161 117.436 138.589 117.834C138.018 118.232 137.352 118.474 136.658 118.536H120.52C120.348 118.55 120.175 118.524 120.016 118.458C119.856 118.392 119.714 118.289 119.602 118.158C119.509 117.959 119.464 117.74 119.473 117.52C119.482 117.3 119.544 117.085 119.653 116.894L124.013 106.9C124.231 106.472 124.339 105.995 124.326 105.514C124.313 105.033 124.18 104.563 123.938 104.147C123.69 103.791 123.354 103.504 122.964 103.313C122.573 103.123 122.14 103.035 121.706 103.059H102.827C101.827 103.122 100.862 103.453 100.035 104.019C99.2077 104.585 98.5485 105.363 98.1271 106.272L97.8271 106.955C97.5288 107.585 97.0711 108.126 96.4995 108.524C95.9278 108.922 95.2621 109.164 94.5681 109.226H85.2001L84.5142 110.796H94.5681C95.5681 110.733 96.5325 110.401 97.3597 109.836C98.1868 109.27 98.8461 108.492 99.2681 107.583L99.5681 106.899C99.8666 106.27 100.324 105.729 100.896 105.331C101.468 104.933 102.133 104.691 102.827 104.629H121.711C121.883 104.615 122.056 104.642 122.216 104.708C122.375 104.773 122.517 104.876 122.629 105.007C122.723 105.207 122.768 105.425 122.759 105.646C122.75 105.866 122.688 106.08 122.578 106.271L118.219 116.265C118 116.694 117.892 117.17 117.905 117.651C117.918 118.132 118.052 118.602 118.294 119.018C118.543 119.375 118.878 119.662 119.268 119.852C119.659 120.042 120.091 120.13 120.525 120.106H136.664C137.664 120.044 138.629 119.712 139.456 119.146C140.284 118.581 140.943 117.802 141.364 116.893L147.985 101.703C148.284 101.074 148.741 100.533 149.313 100.135C149.885 99.7371 150.55 99.4951 151.244 99.4333H159.911C160.083 99.4192 160.256 99.4461 160.416 99.5118C160.576 99.5775 160.718 99.6801 160.83 99.8113C160.924 100.011 160.968 100.23 160.958 100.45C160.949 100.67 160.888 100.884 160.778 101.075L158.214 106.954C157.995 107.383 157.887 107.859 157.9 108.34C157.913 108.821 158.047 109.291 158.289 109.707C158.537 110.064 158.872 110.351 159.263 110.542C159.654 110.733 160.086 110.82 160.52 110.796H185.263V109.225L160.523 109.227Z" fill="#7AFFA6"/>
<path d="M80.1673 109.227H75.1313L74.4453 110.798H79.4813L80.1673 109.227Z" fill="#7AFFA6"/>
<path d="M136.563 46.9816C135.682 46.5614 134.764 46.2233 133.821 45.9716C132.652 45.7111 131.454 45.6046 130.257 45.6546C129.622 45.6248 128.994 45.7975 128.464 46.1476C128.127 46.5559 127.88 47.0305 127.738 47.5406C127.451 49.3255 127.333 51.1335 127.384 52.9406C127.342 53.7816 127.215 54.6162 127.005 55.4316C126.832 56.2316 126.705 56.7616 126.524 57.5366C126.485 57.6408 126.469 57.7521 126.476 57.8631C126.483 57.9741 126.514 58.0824 126.566 58.1806C126.75 58.2423 126.938 58.2921 127.129 58.3296L128.154 58.5296C129.992 58.7056 133.832 59.0676 134.445 59.0406C134.569 59.0396 134.69 59.0008 134.792 58.9293C134.893 58.8579 134.97 58.7571 135.013 58.6406C135.128 58.2176 134.958 56.1406 135.152 54.9556C135.346 53.7706 136.708 49.9556 136.945 48.4886C137.08 47.7476 137.095 47.2806 136.563 46.9816Z" fill="white"/>
<path d="M129.758 56.156C129.138 55.0919 128.951 53.8302 129.235 52.632C129.3 52.3881 129.296 52.131 129.223 51.8893C129.15 51.6477 129.012 51.4311 128.823 51.2636C128.634 51.0962 128.403 50.9845 128.154 50.9412C127.905 50.8978 127.65 50.9244 127.415 51.018C127.4 51.806 127.402 52.512 127.385 52.941C127.343 53.7819 127.216 54.6164 127.007 55.432C126.835 56.232 126.707 56.762 126.524 57.538C126.485 57.6421 126.469 57.7534 126.476 57.8645C126.483 57.9755 126.514 58.0838 126.566 58.182C126.751 58.2435 126.94 58.2933 127.131 58.331L128.156 58.531L129.344 58.643C129.514 58.5169 129.656 58.3585 129.764 58.177C130.408 57.136 130.199 56.658 129.758 56.156Z" fill="#DADADA"/>
<path d="M135.114 40.6094C134.935 39.8424 134.132 39.3634 133.036 39.3004C132.636 39.2711 132.236 39.3597 131.885 39.5552C131.534 39.7506 131.249 40.0445 131.063 40.4004C130.883 40.9347 130.823 41.5022 130.888 42.0624C130.953 42.6225 131.141 43.1614 131.438 43.6404C131.617 44.0154 131.262 45.0964 131.199 45.2634C131.05 45.6504 130.981 45.6564 130.899 45.8634C130.615 46.6304 132.03 47.8714 133.229 47.9244C134.344 47.9734 134.31 46.6244 134.242 46.3184C134.188 46.0714 133.979 46.0334 133.864 45.9564C133.674 45.8284 133.652 45.7144 133.656 45.4764C133.655 45.4234 133.659 45.3705 133.668 45.3184C133.693 45.0564 133.728 44.3934 133.891 44.2534C134.028 44.1324 134.097 44.0904 134.251 43.9684C134.5 43.7775 134.696 43.5258 134.819 43.2374C134.879 42.7674 134.913 42.2943 134.919 41.8204C134.96 41.3394 135.226 41.0864 135.114 40.6094Z" fill="#FEC1B5"/>
<path d="M132.501 43.3361C132.446 43.2661 132.15 42.8201 132.101 42.8771C132.078 43.2293 132.154 43.581 132.321 43.8921C132.418 44.082 132.553 44.25 132.717 44.3856C132.882 44.5212 133.072 44.6214 133.277 44.6801C133.428 44.7136 133.584 44.7177 133.736 44.6921C133.746 44.5323 133.797 44.3778 133.885 44.2441C134.026 44.1261 134.093 44.0811 134.247 43.9591C134.301 43.9164 134.348 43.8662 134.387 43.8101C134.066 43.9608 133.703 43.9959 133.36 43.9096C133.016 43.8232 132.713 43.6205 132.501 43.3361Z" fill="#E8988C"/>
<path d="M133.147 38.754C132.112 38.687 130.979 39.113 130.822 39.8C130.762 40.06 130.789 40.316 130.631 40.489C130.183 40.97 130.561 41.983 130.706 42.355C130.906 42.877 131.387 43.955 131.564 43.887C131.717 43.736 131.808 43.5328 131.818 43.318C131.794 42.977 131.782 42.618 131.728 42.285C131.703 42.2101 131.696 42.1301 131.709 42.0521C131.721 41.9741 131.753 41.9002 131.8 41.837C131.839 41.925 131.93 42.187 131.93 42.187L132.259 42.026C132.557 41.5 132.684 40.8943 132.622 40.293C132.691 40.2062 132.781 40.1376 132.882 40.093C133.415 39.854 133.87 38.802 133.147 38.754Z" fill="#1E2859"/>
<path d="M131.909 42.0218C131.996 42.3658 131.896 42.6897 131.688 42.7477C131.48 42.8057 131.24 42.5728 131.157 42.2288C131.074 41.8848 131.17 41.5597 131.378 41.5027C131.586 41.4457 131.829 41.6778 131.909 42.0218Z" fill="#FEC1B5"/>
<path d="M130.425 41.7418C130.455 41.8788 130.574 42.1418 130.725 41.9558C131.111 41.4696 131.581 41.0569 132.113 40.7377C132.475 40.4839 132.883 40.3013 133.313 40.1998C133.879 40.0671 134.474 40.1233 135.005 40.3598C135.087 40.3998 135.166 40.3048 135.129 40.1658C135.053 39.8638 134.915 39.5808 134.724 39.3343C134.534 39.0878 134.295 38.883 134.022 38.7328C133.3 38.4647 132.506 38.4601 131.78 38.7198C130.168 39.2238 130.158 40.5508 130.425 41.7418Z" fill="#FF9B2B"/>
<path d="M132.318 40.5604C132.448 40.4854 132.875 40.2964 133.118 40.1674C133.366 40.0383 133.601 39.8845 133.818 39.7084C134.034 39.4673 134.275 39.2501 134.537 39.0604C134.654 38.9898 134.785 38.9458 134.921 38.9314C134.948 38.9314 134.911 38.8914 134.739 38.9494C134.377 39.0724 133.82 39.3844 133.482 39.4964C133.201 39.5591 132.941 39.6905 132.723 39.8788C132.506 40.0671 132.338 40.3065 132.236 40.5754C132.228 40.6164 132.258 40.5964 132.318 40.5604Z" fill="#FFB35C"/>
<path d="M132.259 40.5812C132.944 40.3044 133.569 39.8969 134.098 39.3813C134.209 39.2439 134.346 39.1297 134.501 39.0453C134.657 38.9609 134.827 38.9079 135.003 38.8893C135.178 38.8707 135.356 38.8869 135.525 38.937C135.695 38.9871 135.853 39.0701 135.99 39.1813C136.143 39.2967 136.26 39.4523 136.329 39.6307C136.398 39.8092 136.415 40.0033 136.38 40.1913C136.251 40.5503 135.667 40.7502 135.349 40.7912C135.199 40.8122 135.158 40.7913 135.093 40.7123C134.944 40.5188 134.747 40.3683 134.521 40.2763C133.986 40.1378 133.422 40.1569 132.898 40.3312C132.701 40.4109 132.509 40.5027 132.323 40.6062C132.25 40.6682 132.192 40.6232 132.259 40.5812Z" fill="#E68922"/>
<path d="M134.589 42.9152C134.589 42.9732 134.371 43.0642 134.114 43.0232C133.857 42.9822 133.693 42.7872 133.714 42.7332C133.735 42.6792 133.905 42.7812 134.162 42.8202C134.419 42.8592 134.596 42.8602 134.589 42.9152Z" fill="white"/>
<path d="M139.85 53.9657C139.866 53.8148 139.937 53.6752 140.049 53.5728C140.161 53.4704 140.307 53.4124 140.458 53.4097H142.284C141.425 52.3097 139.702 49.8827 138.603 48.7037C137.674 47.7037 136.919 46.6817 135.587 46.9237C135.009 47.0297 134.811 48.0127 134.862 48.6407C134.922 49.3154 135.153 49.9637 135.532 50.5247C136.88 51.9646 138.3 53.336 139.785 54.6337L139.85 53.9657Z" fill="white"/>
<path d="M144.451 55.0493C143.938 54.8358 143.459 54.5484 143.03 54.1963L142.794 56.6963C143.437 56.9454 144.109 57.1117 144.794 57.1913L144.924 57.2043L144.451 55.0493Z" fill="white"/>
<path d="M135.95 60.046L127.133 58.329C126.93 58.2926 126.73 58.2428 126.533 58.18C126.596 58.1201 126.665 58.0671 126.739 58.022C127.269 57.695 128.02 57.647 128.51 57.251C128.974 56.894 129.306 56.3931 129.454 55.827C129.774 54.2746 130.005 52.7055 130.147 51.127C130.311 49.8629 130.213 48.5787 129.86 47.354C129.637 46.8244 129.325 46.3369 128.937 45.913C128.822 45.792 128.814 45.764 128.925 45.735C129.074 45.698 129.361 45.666 129.506 45.645C129.651 45.624 129.735 45.703 129.854 45.821C130.31 46.3318 130.642 46.941 130.824 47.601C131.105 48.6631 131.209 49.7641 131.132 50.86C131.946 50.917 133.339 51.032 134.132 51.101C134.603 49.5813 134.792 47.9886 134.691 46.401C134.664 46.219 134.648 46.138 134.749 46.177C134.876 46.225 135.16 46.313 135.335 46.377C135.484 46.429 135.525 46.662 135.544 46.733C135.78 47.621 135.226 50.391 135.008 51.515C134.827 52.446 134.608 54.504 134.575 55.266C134.483 55.9446 134.508 56.634 134.65 57.304C134.769 57.6569 134.95 57.9855 135.185 58.274C135.517 58.634 135.86 58.722 135.896 59.139C135.916 59.289 135.934 59.644 135.95 60.046Z" fill="url(#paint11_linear_4012_7099)"/>
<path d="M124.538 56.4516C124.705 54.8216 125.813 50.2516 126.082 48.9796C126.231 48.2576 126.511 46.8626 127.427 46.3426C127.811 46.1455 128.213 45.9854 128.627 45.8646C128.689 45.8426 128.758 45.842 128.82 45.8628C128.883 45.8836 128.938 45.9247 128.975 45.9796C129.311 46.427 129.559 46.9339 129.706 47.4736C129.875 48.5068 129.794 49.5656 129.468 50.5606C129.085 52.0926 128.389 54.1156 128.123 55.0776C127.761 56.3676 128.878 56.5006 129.235 56.5716C130.411 56.8046 135.447 57.5716 136.184 57.7206C136.994 57.8836 137.051 58.3206 137.015 58.6886C136.994 58.8996 136.698 59.1216 136.268 59.1236C135.053 59.1236 129.245 59.1696 127.381 59.1236C125.868 59.0686 124.278 58.9696 124.538 56.4516Z" fill="white"/>
<path d="M139.476 57.9281C139.244 57.7411 139.028 57.5691 138.904 57.4801C138.748 57.3506 138.558 57.2687 138.357 57.2441C137.97 57.2441 137.595 57.2771 137.357 57.2981C137.091 57.3201 136.757 57.6451 136.457 57.8311C136.373 57.8754 136.299 57.9359 136.238 58.009C136.177 58.0821 136.132 58.1665 136.104 58.2573C136.076 58.3481 136.066 58.4435 136.076 58.538C136.085 58.6325 136.112 58.7243 136.157 58.8081C136.233 58.9034 136.334 58.975 136.449 59.0146C136.565 59.0543 136.689 59.0604 136.807 59.0321C137.143 58.9691 137.796 58.8001 138.167 58.6941C138.312 58.6458 138.465 58.6269 138.617 58.6384C138.769 58.6499 138.917 58.6916 139.053 58.7611C139.18 58.8181 139.291 58.8611 139.389 58.8981L139.476 57.9281Z" fill="#FEC1B5"/>
<defs>
<linearGradient id="paint0_linear_4012_7099" x1="197.29" y1="67.013" x2="4.75861" y2="107.35" gradientUnits="userSpaceOnUse">
<stop stop-color="#76EBD8"/>
<stop offset="1" stop-color="#C8E9F7"/>
</linearGradient>
<linearGradient id="paint1_linear_4012_7099" x1="220.444" y1="63.4029" x2="136.397" y2="79.4013" gradientUnits="userSpaceOnUse">
<stop stop-color="#B6BDFF"/>
<stop offset="1" stop-color="#D4D8FF"/>
</linearGradient>
<linearGradient id="paint2_linear_4012_7099" x1="192.759" y1="33.3754" x2="-1.3963" y2="66.9594" gradientUnits="userSpaceOnUse">
<stop stop-color="#B6BDFF"/>
<stop offset="1" stop-color="#D4D8FF"/>
</linearGradient>
<linearGradient id="paint3_linear_4012_7099" x1="193.882" y1="41.6086" x2="-2.06229" y2="45.8964" gradientUnits="userSpaceOnUse">
<stop stop-color="#76EBD8"/>
<stop offset="1" stop-color="#C8E9F7"/>
</linearGradient>
<linearGradient id="paint4_linear_4012_7099" x1="152.173" y1="38.7227" x2="88.6099" y2="42.6286" gradientUnits="userSpaceOnUse">
<stop stop-color="#B6BDFF"/>
<stop offset="1" stop-color="#D4D8FF"/>
</linearGradient>
<linearGradient id="paint5_linear_4012_7099" x1="135.427" y1="37.6135" x2="12.7062" y2="56.3522" gradientUnits="userSpaceOnUse">
<stop stop-color="#B6BDFF"/>
<stop offset="1" stop-color="#D4D8FF"/>
</linearGradient>
<linearGradient id="paint6_linear_4012_7099" x1="60.2945" y1="21.6128" x2="25.3916" y2="53.486" gradientUnits="userSpaceOnUse">
<stop stop-color="#76EBD8"/>
<stop offset="1" stop-color="white"/>
</linearGradient>
<linearGradient id="paint7_linear_4012_7099" x1="85.3748" y1="24.5802" x2="13.6856" y2="37.2299" gradientUnits="userSpaceOnUse">
<stop stop-color="#B6BDFF"/>
<stop offset="1" stop-color="#D4D8FF"/>
</linearGradient>
<linearGradient id="paint8_linear_4012_7099" x1="80.1925" y1="83.3193" x2="80.1925" y2="25.7344" gradientUnits="userSpaceOnUse">
<stop stop-color="#30358C"/>
<stop offset="1" stop-color="#367AD1"/>
</linearGradient>
<linearGradient id="paint9_linear_4012_7099" x1="19.8992" y1="18.5357" x2="38.9567" y2="104.598" gradientUnits="userSpaceOnUse">
<stop stop-color="#3A43BA"/>
<stop offset="1" stop-color="#313465"/>
</linearGradient>
<linearGradient id="paint10_linear_4012_7099" x1="93.0284" y1="87.4564" x2="68.005" y2="81.1222" gradientUnits="userSpaceOnUse">
<stop stop-color="#30358C"/>
<stop offset="0.12" stop-color="#30388F"/>
<stop offset="0.27" stop-color="#3355AC"/>
<stop offset="0.52" stop-color="#3A43BA"/>
<stop offset="0.76" stop-color="#3A43BA"/>
<stop offset="1" stop-color="#3A43BA"/>
</linearGradient>
<linearGradient id="paint11_linear_4012_7099" x1="126.533" y1="52.8438" x2="135.95" y2="52.8438" gradientUnits="userSpaceOnUse">
<stop stop-color="#3A43BA"/>
<stop offset="1" stop-color="#3A43BA"/>
</linearGradient>
</defs>
</svg>
